M48
; DRILL file {KiCad (5.1.9)-1} date 04/05/22 10:11:21
; FORMAT={-:-/ absolute / metric / decimal}
; #@! TF.CreationDate,2022-04-05T10:11:21-05:00
; #@! TF.GenerationSoftware,Kicad,Pcbnew,(5.1.9)-1
; #@! TF.FileFunction,Plated,1,4,PTH
FMAT,2
METRIC
T1C0.381
T2C0.900
%
G90
G05
T1
X39.243Y-32.851
X39.243Y-33.909
X39.243Y-38.82
X39.243Y-39.878
X40.386Y-35.814
X40.852Y-42.079
X42.754Y-48.94
X43.053Y-43.307
X44.069Y-36.449
X44.196Y-43.307
X44.622Y-48.94
X46.524Y-42.079
X47.498Y-35.814
X48.283Y-38.801
X48.345Y-39.92
X49.022Y-33.782
X49.064Y-32.851
X49.657Y-49.657
X52.578Y-44.958
X52.705Y-34.798
X58.649Y-40.665
X59.157Y-41.224
X59.461Y-38.633
X59.817Y-41.656
X60.579Y-41.808
X61.341Y-41.656
X61.697Y-38.633
X62.001Y-41.224
X62.509Y-40.665
X63.17Y-46.812
X64.44Y-45.72
X64.897Y-36.449
X66.929Y-33.528
X68.25Y-47.041
X68.326Y-33.528
T2
X34.417Y-31.02
X34.417Y-33.12
X34.417Y-35.22
X34.417Y-37.32
X34.417Y-39.42
X34.417Y-41.52
X34.417Y-43.62
X34.417Y-45.72
X34.417Y-47.82
X34.417Y-49.92
T0
M30
