%TF.GenerationSoftware,KiCad,Pcbnew,(5.1.9)-1*%
%TF.CreationDate,2022-04-05T10:11:24-05:00*%
%TF.ProjectId,iPod Bluetooth I2C Bridge,69506f64-2042-46c7-9565-746f6f746820,rev?*%
%TF.SameCoordinates,Original*%
%TF.FileFunction,Legend,Top*%
%TF.FilePolarity,Positive*%
%FSLAX46Y46*%
G04 Gerber Fmt 4.6, Leading zero omitted, Abs format (unit mm)*
G04 Created by KiCad (PCBNEW (5.1.9)-1) date 2022-04-05 10:11:24*
%MOMM*%
%LPD*%
G01*
G04 APERTURE LIST*
%ADD10C,0.190500*%
%ADD11C,0.100000*%
%ADD12C,0.150000*%
%ADD13C,0.500000*%
%ADD14C,0.120000*%
%ADD15C,0.127000*%
%ADD16C,0.200000*%
%ADD17C,0.125000*%
%ADD18C,0.114300*%
%ADD19O,0.900000X2.500000*%
%ADD20O,2.500000X0.900000*%
%ADD21R,6.000000X6.000000*%
%ADD22O,2.100000X1.400000*%
%ADD23R,0.400000X0.600000*%
%ADD24R,0.500000X0.600000*%
%ADD25R,0.600000X0.500000*%
%ADD26R,1.060000X0.650000*%
G04 APERTURE END LIST*
D10*
X36068000Y-30697714D02*
X36322000Y-31459714D01*
X36576000Y-30697714D01*
X37265428Y-31387142D02*
X37229142Y-31423428D01*
X37120285Y-31459714D01*
X37047714Y-31459714D01*
X36938857Y-31423428D01*
X36866285Y-31350857D01*
X36830000Y-31278285D01*
X36793714Y-31133142D01*
X36793714Y-31024285D01*
X36830000Y-30879142D01*
X36866285Y-30806571D01*
X36938857Y-30734000D01*
X37047714Y-30697714D01*
X37120285Y-30697714D01*
X37229142Y-30734000D01*
X37265428Y-30770285D01*
X38027428Y-31387142D02*
X37991142Y-31423428D01*
X37882285Y-31459714D01*
X37809714Y-31459714D01*
X37700857Y-31423428D01*
X37628285Y-31350857D01*
X37592000Y-31278285D01*
X37555714Y-31133142D01*
X37555714Y-31024285D01*
X37592000Y-30879142D01*
X37628285Y-30806571D01*
X37700857Y-30734000D01*
X37809714Y-30697714D01*
X37882285Y-30697714D01*
X37991142Y-30734000D01*
X38027428Y-30770285D01*
X36449000Y-41873714D02*
X36195000Y-41510857D01*
X36013571Y-41873714D02*
X36013571Y-41111714D01*
X36303857Y-41111714D01*
X36376428Y-41148000D01*
X36412714Y-41184285D01*
X36449000Y-41256857D01*
X36449000Y-41365714D01*
X36412714Y-41438285D01*
X36376428Y-41474571D01*
X36303857Y-41510857D01*
X36013571Y-41510857D01*
X36703000Y-41111714D02*
X37211000Y-41873714D01*
X37211000Y-41111714D02*
X36703000Y-41873714D01*
X36376428Y-49657000D02*
X36303857Y-49620714D01*
X36195000Y-49620714D01*
X36086142Y-49657000D01*
X36013571Y-49729571D01*
X35977285Y-49802142D01*
X35941000Y-49947285D01*
X35941000Y-50056142D01*
X35977285Y-50201285D01*
X36013571Y-50273857D01*
X36086142Y-50346428D01*
X36195000Y-50382714D01*
X36267571Y-50382714D01*
X36376428Y-50346428D01*
X36412714Y-50310142D01*
X36412714Y-50056142D01*
X36267571Y-50056142D01*
X36739285Y-50382714D02*
X36739285Y-49620714D01*
X37174714Y-50382714D01*
X37174714Y-49620714D01*
X37537571Y-50382714D02*
X37537571Y-49620714D01*
X37719000Y-49620714D01*
X37827857Y-49657000D01*
X37900428Y-49729571D01*
X37936714Y-49802142D01*
X37973000Y-49947285D01*
X37973000Y-50056142D01*
X37936714Y-50201285D01*
X37900428Y-50273857D01*
X37827857Y-50346428D01*
X37719000Y-50382714D01*
X37537571Y-50382714D01*
X36322000Y-47951571D02*
X36430857Y-47987857D01*
X36467142Y-48024142D01*
X36503428Y-48096714D01*
X36503428Y-48205571D01*
X36467142Y-48278142D01*
X36430857Y-48314428D01*
X36358285Y-48350714D01*
X36068000Y-48350714D01*
X36068000Y-47588714D01*
X36322000Y-47588714D01*
X36394571Y-47625000D01*
X36430857Y-47661285D01*
X36467142Y-47733857D01*
X36467142Y-47806428D01*
X36430857Y-47879000D01*
X36394571Y-47915285D01*
X36322000Y-47951571D01*
X36068000Y-47951571D01*
X37265428Y-48278142D02*
X37229142Y-48314428D01*
X37120285Y-48350714D01*
X37047714Y-48350714D01*
X36938857Y-48314428D01*
X36866285Y-48241857D01*
X36830000Y-48169285D01*
X36793714Y-48024142D01*
X36793714Y-47915285D01*
X36830000Y-47770142D01*
X36866285Y-47697571D01*
X36938857Y-47625000D01*
X37047714Y-47588714D01*
X37120285Y-47588714D01*
X37229142Y-47625000D01*
X37265428Y-47661285D01*
X37954857Y-48350714D02*
X37592000Y-48350714D01*
X37592000Y-47588714D01*
X38208857Y-48350714D02*
X38208857Y-47588714D01*
X38644285Y-48350714D02*
X38317714Y-47915285D01*
X38644285Y-47588714D02*
X38208857Y-48024142D01*
X35995428Y-39079714D02*
X36430857Y-39079714D01*
X36213142Y-39841714D02*
X36213142Y-39079714D01*
X36612285Y-39079714D02*
X37120285Y-39841714D01*
X37120285Y-39079714D02*
X36612285Y-39841714D01*
X35977285Y-43996428D02*
X36086142Y-44032714D01*
X36267571Y-44032714D01*
X36340142Y-43996428D01*
X36376428Y-43960142D01*
X36412714Y-43887571D01*
X36412714Y-43815000D01*
X36376428Y-43742428D01*
X36340142Y-43706142D01*
X36267571Y-43669857D01*
X36122428Y-43633571D01*
X36049857Y-43597285D01*
X36013571Y-43561000D01*
X35977285Y-43488428D01*
X35977285Y-43415857D01*
X36013571Y-43343285D01*
X36049857Y-43307000D01*
X36122428Y-43270714D01*
X36303857Y-43270714D01*
X36412714Y-43307000D01*
X36739285Y-44032714D02*
X36739285Y-43270714D01*
X36920714Y-43270714D01*
X37029571Y-43307000D01*
X37102142Y-43379571D01*
X37138428Y-43452142D01*
X37174714Y-43597285D01*
X37174714Y-43706142D01*
X37138428Y-43851285D01*
X37102142Y-43923857D01*
X37029571Y-43996428D01*
X36920714Y-44032714D01*
X36739285Y-44032714D01*
X36013571Y-45429714D02*
X36195000Y-46191714D01*
X36340142Y-45647428D01*
X36485285Y-46191714D01*
X36666714Y-45429714D01*
X36920714Y-46155428D02*
X37029571Y-46191714D01*
X37211000Y-46191714D01*
X37283571Y-46155428D01*
X37319857Y-46119142D01*
X37356142Y-46046571D01*
X37356142Y-45974000D01*
X37319857Y-45901428D01*
X37283571Y-45865142D01*
X37211000Y-45828857D01*
X37065857Y-45792571D01*
X36993285Y-45756285D01*
X36957000Y-45720000D01*
X36920714Y-45647428D01*
X36920714Y-45574857D01*
X36957000Y-45502285D01*
X36993285Y-45466000D01*
X37065857Y-45429714D01*
X37247285Y-45429714D01*
X37356142Y-45466000D01*
X36539714Y-33491714D02*
X36285714Y-33128857D01*
X36104285Y-33491714D02*
X36104285Y-32729714D01*
X36394571Y-32729714D01*
X36467142Y-32766000D01*
X36503428Y-32802285D01*
X36539714Y-32874857D01*
X36539714Y-32983714D01*
X36503428Y-33056285D01*
X36467142Y-33092571D01*
X36394571Y-33128857D01*
X36104285Y-33128857D01*
X36830000Y-33455428D02*
X36938857Y-33491714D01*
X37120285Y-33491714D01*
X37192857Y-33455428D01*
X37229142Y-33419142D01*
X37265428Y-33346571D01*
X37265428Y-33274000D01*
X37229142Y-33201428D01*
X37192857Y-33165142D01*
X37120285Y-33128857D01*
X36975142Y-33092571D01*
X36902571Y-33056285D01*
X36866285Y-33020000D01*
X36830000Y-32947428D01*
X36830000Y-32874857D01*
X36866285Y-32802285D01*
X36902571Y-32766000D01*
X36975142Y-32729714D01*
X37156571Y-32729714D01*
X37265428Y-32766000D01*
X37483142Y-32729714D02*
X37918571Y-32729714D01*
X37700857Y-33491714D02*
X37700857Y-32729714D01*
X36376428Y-37084000D02*
X36303857Y-37047714D01*
X36195000Y-37047714D01*
X36086142Y-37084000D01*
X36013571Y-37156571D01*
X35977285Y-37229142D01*
X35941000Y-37374285D01*
X35941000Y-37483142D01*
X35977285Y-37628285D01*
X36013571Y-37700857D01*
X36086142Y-37773428D01*
X36195000Y-37809714D01*
X36267571Y-37809714D01*
X36376428Y-37773428D01*
X36412714Y-37737142D01*
X36412714Y-37483142D01*
X36267571Y-37483142D01*
X36739285Y-37809714D02*
X36739285Y-37047714D01*
X37174714Y-37809714D01*
X37174714Y-37047714D01*
X37537571Y-37809714D02*
X37537571Y-37047714D01*
X37719000Y-37047714D01*
X37827857Y-37084000D01*
X37900428Y-37156571D01*
X37936714Y-37229142D01*
X37973000Y-37374285D01*
X37973000Y-37483142D01*
X37936714Y-37628285D01*
X37900428Y-37700857D01*
X37827857Y-37773428D01*
X37719000Y-37809714D01*
X37537571Y-37809714D01*
X36303857Y-35124571D02*
X36412714Y-35160857D01*
X36449000Y-35197142D01*
X36485285Y-35269714D01*
X36485285Y-35378571D01*
X36449000Y-35451142D01*
X36412714Y-35487428D01*
X36340142Y-35523714D01*
X36049857Y-35523714D01*
X36049857Y-34761714D01*
X36303857Y-34761714D01*
X36376428Y-34798000D01*
X36412714Y-34834285D01*
X36449000Y-34906857D01*
X36449000Y-34979428D01*
X36412714Y-35052000D01*
X36376428Y-35088285D01*
X36303857Y-35124571D01*
X36049857Y-35124571D01*
X36957000Y-34761714D02*
X37102142Y-34761714D01*
X37174714Y-34798000D01*
X37247285Y-34870571D01*
X37283571Y-35015714D01*
X37283571Y-35269714D01*
X37247285Y-35414857D01*
X37174714Y-35487428D01*
X37102142Y-35523714D01*
X36957000Y-35523714D01*
X36884428Y-35487428D01*
X36811857Y-35414857D01*
X36775571Y-35269714D01*
X36775571Y-35015714D01*
X36811857Y-34870571D01*
X36884428Y-34798000D01*
X36957000Y-34761714D01*
X37755285Y-34761714D02*
X37900428Y-34761714D01*
X37973000Y-34798000D01*
X38045571Y-34870571D01*
X38081857Y-35015714D01*
X38081857Y-35269714D01*
X38045571Y-35414857D01*
X37973000Y-35487428D01*
X37900428Y-35523714D01*
X37755285Y-35523714D01*
X37682714Y-35487428D01*
X37610142Y-35414857D01*
X37573857Y-35269714D01*
X37573857Y-35015714D01*
X37610142Y-34870571D01*
X37682714Y-34798000D01*
X37755285Y-34761714D01*
X38299571Y-34761714D02*
X38735000Y-34761714D01*
X38517285Y-35523714D02*
X38517285Y-34761714D01*
D11*
X67442292Y-42322152D02*
X67492292Y-41922152D01*
X67587530Y-41922152D01*
X67642292Y-41941200D01*
X67675626Y-41979295D01*
X67689911Y-42017390D01*
X67699435Y-42093580D01*
X67692292Y-42150723D01*
X67663721Y-42226914D01*
X67639911Y-42265009D01*
X67597054Y-42303104D01*
X67537530Y-42322152D01*
X67442292Y-42322152D01*
X67997054Y-42303104D02*
X67956578Y-42322152D01*
X67880388Y-42322152D01*
X67844673Y-42303104D01*
X67830388Y-42265009D01*
X67849435Y-42112628D01*
X67873245Y-42074533D01*
X67913721Y-42055485D01*
X67989911Y-42055485D01*
X68025626Y-42074533D01*
X68039911Y-42112628D01*
X68035150Y-42150723D01*
X67839911Y-42188819D01*
X68168483Y-42303104D02*
X68204197Y-42322152D01*
X68280388Y-42322152D01*
X68320864Y-42303104D01*
X68344673Y-42265009D01*
X68347054Y-42245961D01*
X68332769Y-42207866D01*
X68297054Y-42188819D01*
X68239911Y-42188819D01*
X68204197Y-42169771D01*
X68189911Y-42131676D01*
X68192292Y-42112628D01*
X68216102Y-42074533D01*
X68256578Y-42055485D01*
X68313721Y-42055485D01*
X68349435Y-42074533D01*
X68508959Y-42322152D02*
X68542292Y-42055485D01*
X68558959Y-41922152D02*
X68537530Y-41941200D01*
X68554197Y-41960247D01*
X68575626Y-41941200D01*
X68558959Y-41922152D01*
X68554197Y-41960247D01*
X68904197Y-42055485D02*
X68863721Y-42379295D01*
X68839911Y-42417390D01*
X68818483Y-42436438D01*
X68778007Y-42455485D01*
X68720864Y-42455485D01*
X68685150Y-42436438D01*
X68873245Y-42303104D02*
X68832769Y-42322152D01*
X68756578Y-42322152D01*
X68720864Y-42303104D01*
X68704197Y-42284057D01*
X68689911Y-42245961D01*
X68704197Y-42131676D01*
X68728007Y-42093580D01*
X68749435Y-42074533D01*
X68789911Y-42055485D01*
X68866102Y-42055485D01*
X68901816Y-42074533D01*
X69094673Y-42055485D02*
X69061340Y-42322152D01*
X69089911Y-42093580D02*
X69111340Y-42074533D01*
X69151816Y-42055485D01*
X69208959Y-42055485D01*
X69244673Y-42074533D01*
X69258959Y-42112628D01*
X69232769Y-42322152D01*
X69578007Y-42303104D02*
X69537530Y-42322152D01*
X69461340Y-42322152D01*
X69425626Y-42303104D01*
X69411340Y-42265009D01*
X69430388Y-42112628D01*
X69454197Y-42074533D01*
X69494673Y-42055485D01*
X69570864Y-42055485D01*
X69606578Y-42074533D01*
X69620864Y-42112628D01*
X69616102Y-42150723D01*
X69420864Y-42188819D01*
X69937530Y-42322152D02*
X69987530Y-41922152D01*
X69939911Y-42303104D02*
X69899435Y-42322152D01*
X69823245Y-42322152D01*
X69787530Y-42303104D01*
X69770864Y-42284057D01*
X69756578Y-42245961D01*
X69770864Y-42131676D01*
X69794673Y-42093580D01*
X69816102Y-42074533D01*
X69856578Y-42055485D01*
X69932769Y-42055485D01*
X69968483Y-42074533D01*
X70432769Y-42322152D02*
X70482769Y-41922152D01*
X70463721Y-42074533D02*
X70504197Y-42055485D01*
X70580388Y-42055485D01*
X70616102Y-42074533D01*
X70632769Y-42093580D01*
X70647054Y-42131676D01*
X70632769Y-42245961D01*
X70608959Y-42284057D01*
X70587530Y-42303104D01*
X70547054Y-42322152D01*
X70470864Y-42322152D01*
X70435150Y-42303104D01*
X70789911Y-42055485D02*
X70851816Y-42322152D01*
X70980388Y-42055485D02*
X70851816Y-42322152D01*
X70801816Y-42417390D01*
X70780388Y-42436438D01*
X70739911Y-42455485D01*
X71397054Y-41922152D02*
X71625626Y-41922152D01*
X71461340Y-42322152D02*
X71511340Y-41922152D01*
X71913721Y-42055485D02*
X71880388Y-42322152D01*
X71742292Y-42055485D02*
X71716102Y-42265009D01*
X71730388Y-42303104D01*
X71766102Y-42322152D01*
X71823245Y-42322152D01*
X71863721Y-42303104D01*
X71885150Y-42284057D01*
X72244673Y-42303104D02*
X72204197Y-42322152D01*
X72128007Y-42322152D01*
X72092292Y-42303104D01*
X72075626Y-42284057D01*
X72061340Y-42245961D01*
X72075626Y-42131676D01*
X72099435Y-42093580D01*
X72120864Y-42074533D01*
X72161340Y-42055485D01*
X72237530Y-42055485D01*
X72273245Y-42074533D01*
X72413721Y-42322152D02*
X72463721Y-41922152D01*
X72470864Y-42169771D02*
X72566102Y-42322152D01*
X72599435Y-42055485D02*
X72428007Y-42207866D01*
X72892292Y-42303104D02*
X72851816Y-42322152D01*
X72775626Y-42322152D01*
X72739911Y-42303104D01*
X72725626Y-42265009D01*
X72744673Y-42112628D01*
X72768483Y-42074533D01*
X72808959Y-42055485D01*
X72885150Y-42055485D01*
X72920864Y-42074533D01*
X72935150Y-42112628D01*
X72930388Y-42150723D01*
X72735150Y-42188819D01*
X73080388Y-42322152D02*
X73113721Y-42055485D01*
X73104197Y-42131676D02*
X73128007Y-42093580D01*
X73149435Y-42074533D01*
X73189911Y-42055485D01*
X73228007Y-42055485D01*
X73758959Y-41922152D02*
X73835150Y-41922152D01*
X73870864Y-41941200D01*
X73904197Y-41979295D01*
X73913721Y-42055485D01*
X73897054Y-42188819D01*
X73868483Y-42265009D01*
X73825626Y-42303104D01*
X73785150Y-42322152D01*
X73708959Y-42322152D01*
X73673245Y-42303104D01*
X73639911Y-42265009D01*
X73630388Y-42188819D01*
X73647054Y-42055485D01*
X73675626Y-41979295D01*
X73718483Y-41941200D01*
X73758959Y-41922152D01*
X74035150Y-42303104D02*
X74070864Y-42322152D01*
X74147054Y-42322152D01*
X74187530Y-42303104D01*
X74211340Y-42265009D01*
X74213721Y-42245961D01*
X74199435Y-42207866D01*
X74163721Y-42188819D01*
X74106578Y-42188819D01*
X74070864Y-42169771D01*
X74056578Y-42131676D01*
X74058959Y-42112628D01*
X74082769Y-42074533D01*
X74123245Y-42055485D01*
X74180388Y-42055485D01*
X74216102Y-42074533D01*
X74375626Y-42322152D02*
X74408959Y-42055485D01*
X74404197Y-42093580D02*
X74425626Y-42074533D01*
X74466102Y-42055485D01*
X74523245Y-42055485D01*
X74558959Y-42074533D01*
X74573245Y-42112628D01*
X74547054Y-42322152D01*
X74573245Y-42112628D02*
X74597054Y-42074533D01*
X74637530Y-42055485D01*
X74694673Y-42055485D01*
X74730388Y-42074533D01*
X74744673Y-42112628D01*
X74718483Y-42322152D01*
X75080388Y-42322152D02*
X75106578Y-42112628D01*
X75092292Y-42074533D01*
X75056578Y-42055485D01*
X74980388Y-42055485D01*
X74939911Y-42074533D01*
X75082769Y-42303104D02*
X75042292Y-42322152D01*
X74947054Y-42322152D01*
X74911340Y-42303104D01*
X74897054Y-42265009D01*
X74901816Y-42226914D01*
X74925626Y-42188819D01*
X74966102Y-42169771D01*
X75061340Y-42169771D01*
X75101816Y-42150723D01*
X75304197Y-42055485D02*
X75270864Y-42322152D01*
X75299435Y-42093580D02*
X75320864Y-42074533D01*
X75361340Y-42055485D01*
X75418483Y-42055485D01*
X75454197Y-42074533D01*
X75468483Y-42112628D01*
X75442292Y-42322152D01*
X73023245Y-43174533D02*
X73006578Y-43155485D01*
X72975626Y-43098342D01*
X72961340Y-43060247D01*
X72949435Y-43003104D01*
X72942292Y-42907866D01*
X72951816Y-42831676D01*
X72982769Y-42736438D01*
X73008959Y-42679295D01*
X73032769Y-42641200D01*
X73078007Y-42584057D01*
X73099435Y-42565009D01*
X73368483Y-43003104D02*
X73328007Y-43022152D01*
X73251816Y-43022152D01*
X73216102Y-43003104D01*
X73199435Y-42984057D01*
X73185150Y-42945961D01*
X73199435Y-42831676D01*
X73223245Y-42793580D01*
X73244673Y-42774533D01*
X73285150Y-42755485D01*
X73361340Y-42755485D01*
X73397054Y-42774533D01*
X73480388Y-43174533D02*
X73501816Y-43155485D01*
X73547054Y-43098342D01*
X73570864Y-43060247D01*
X73597054Y-43003104D01*
X73628007Y-42907866D01*
X73637530Y-42831676D01*
X73630388Y-42736438D01*
X73618483Y-42679295D01*
X73604197Y-42641200D01*
X73573245Y-42584057D01*
X73556578Y-42565009D01*
X74135150Y-42660247D02*
X74156578Y-42641200D01*
X74197054Y-42622152D01*
X74292292Y-42622152D01*
X74328007Y-42641200D01*
X74344673Y-42660247D01*
X74358959Y-42698342D01*
X74354197Y-42736438D01*
X74328007Y-42793580D01*
X74070864Y-43022152D01*
X74318483Y-43022152D01*
X74616102Y-42622152D02*
X74654197Y-42622152D01*
X74689911Y-42641200D01*
X74706578Y-42660247D01*
X74720864Y-42698342D01*
X74730388Y-42774533D01*
X74718483Y-42869771D01*
X74689911Y-42945961D01*
X74666102Y-42984057D01*
X74644673Y-43003104D01*
X74604197Y-43022152D01*
X74566102Y-43022152D01*
X74530388Y-43003104D01*
X74513721Y-42984057D01*
X74499435Y-42945961D01*
X74489911Y-42869771D01*
X74501816Y-42774533D01*
X74530388Y-42698342D01*
X74554197Y-42660247D01*
X74575626Y-42641200D01*
X74616102Y-42622152D01*
X74897054Y-42660247D02*
X74918483Y-42641200D01*
X74958959Y-42622152D01*
X75054197Y-42622152D01*
X75089911Y-42641200D01*
X75106578Y-42660247D01*
X75120864Y-42698342D01*
X75116102Y-42736438D01*
X75089911Y-42793580D01*
X74832769Y-43022152D01*
X75080388Y-43022152D01*
X75278007Y-42660247D02*
X75299435Y-42641200D01*
X75339911Y-42622152D01*
X75435150Y-42622152D01*
X75470864Y-42641200D01*
X75487530Y-42660247D01*
X75501816Y-42698342D01*
X75497054Y-42736438D01*
X75470864Y-42793580D01*
X75213721Y-43022152D01*
X75461340Y-43022152D01*
X71193750Y-31180952D02*
X71227083Y-30914285D01*
X71217559Y-30990476D02*
X71241369Y-30952380D01*
X71262797Y-30933333D01*
X71303273Y-30914285D01*
X71341369Y-30914285D01*
X71596130Y-31161904D02*
X71555654Y-31180952D01*
X71479464Y-31180952D01*
X71443750Y-31161904D01*
X71429464Y-31123809D01*
X71448511Y-30971428D01*
X71472321Y-30933333D01*
X71512797Y-30914285D01*
X71588988Y-30914285D01*
X71624702Y-30933333D01*
X71638988Y-30971428D01*
X71634226Y-31009523D01*
X71438988Y-31047619D01*
X71779464Y-30914285D02*
X71841369Y-31180952D01*
X71969940Y-30914285D01*
X72548511Y-31161904D02*
X72508035Y-31180952D01*
X72431845Y-31180952D01*
X72396130Y-31161904D01*
X72381845Y-31123809D01*
X72400892Y-30971428D01*
X72424702Y-30933333D01*
X72465178Y-30914285D01*
X72541369Y-30914285D01*
X72577083Y-30933333D01*
X72591369Y-30971428D01*
X72586607Y-31009523D01*
X72391369Y-31047619D01*
X72719940Y-31161904D02*
X72755654Y-31180952D01*
X72831845Y-31180952D01*
X72872321Y-31161904D01*
X72896130Y-31123809D01*
X72898511Y-31104761D01*
X72884226Y-31066666D01*
X72848511Y-31047619D01*
X72791369Y-31047619D01*
X72755654Y-31028571D01*
X72741369Y-30990476D01*
X72743750Y-30971428D01*
X72767559Y-30933333D01*
X72808035Y-30914285D01*
X72865178Y-30914285D01*
X72900892Y-30933333D01*
X73093750Y-30914285D02*
X73043750Y-31314285D01*
X73091369Y-30933333D02*
X73131845Y-30914285D01*
X73208035Y-30914285D01*
X73243750Y-30933333D01*
X73260416Y-30952380D01*
X73274702Y-30990476D01*
X73260416Y-31104761D01*
X73236607Y-31142857D01*
X73215178Y-31161904D01*
X73174702Y-31180952D01*
X73098511Y-31180952D01*
X73062797Y-31161904D01*
X73434226Y-30780952D02*
X73681845Y-30780952D01*
X73529464Y-30933333D01*
X73586607Y-30933333D01*
X73622321Y-30952380D01*
X73638988Y-30971428D01*
X73653273Y-31009523D01*
X73641369Y-31104761D01*
X73617559Y-31142857D01*
X73596130Y-31161904D01*
X73555654Y-31180952D01*
X73441369Y-31180952D01*
X73405654Y-31161904D01*
X73388988Y-31142857D01*
X73829464Y-30819047D02*
X73850892Y-30800000D01*
X73891369Y-30780952D01*
X73986607Y-30780952D01*
X74022321Y-30800000D01*
X74038988Y-30819047D01*
X74053273Y-30857142D01*
X74048511Y-30895238D01*
X74022321Y-30952380D01*
X73765178Y-31180952D01*
X74012797Y-31180952D01*
X74615178Y-30780952D02*
X74653273Y-30780952D01*
X74688988Y-30800000D01*
X74705654Y-30819047D01*
X74719940Y-30857142D01*
X74729464Y-30933333D01*
X74717559Y-31028571D01*
X74688988Y-31104761D01*
X74665178Y-31142857D01*
X74643750Y-31161904D01*
X74603273Y-31180952D01*
X74565178Y-31180952D01*
X74529464Y-31161904D01*
X74512797Y-31142857D01*
X74498511Y-31104761D01*
X74488988Y-31028571D01*
X74500892Y-30933333D01*
X74529464Y-30857142D01*
X74553273Y-30819047D01*
X74574702Y-30800000D01*
X74615178Y-30780952D01*
X74874702Y-31142857D02*
X74891369Y-31161904D01*
X74869940Y-31180952D01*
X74853273Y-31161904D01*
X74874702Y-31142857D01*
X74869940Y-31180952D01*
X75072321Y-30780952D02*
X75319940Y-30780952D01*
X75167559Y-30933333D01*
X75224702Y-30933333D01*
X75260416Y-30952380D01*
X75277083Y-30971428D01*
X75291369Y-31009523D01*
X75279464Y-31104761D01*
X75255654Y-31142857D01*
X75234226Y-31161904D01*
X75193750Y-31180952D01*
X75079464Y-31180952D01*
X75043750Y-31161904D01*
X75027083Y-31142857D01*
D12*
X68825566Y-45759666D02*
X68825566Y-46259666D01*
X68792233Y-46359666D01*
X68725566Y-46426333D01*
X68625566Y-46459666D01*
X68558900Y-46459666D01*
X69492233Y-46459666D02*
X69158900Y-46459666D01*
X69158900Y-45759666D01*
X70125566Y-46393000D02*
X70092233Y-46426333D01*
X69992233Y-46459666D01*
X69925566Y-46459666D01*
X69825566Y-46426333D01*
X69758900Y-46359666D01*
X69725566Y-46293000D01*
X69692233Y-46159666D01*
X69692233Y-46059666D01*
X69725566Y-45926333D01*
X69758900Y-45859666D01*
X69825566Y-45793000D01*
X69925566Y-45759666D01*
X69992233Y-45759666D01*
X70092233Y-45793000D01*
X70125566Y-45826333D01*
X70625566Y-45759666D02*
X70625566Y-46259666D01*
X70592233Y-46359666D01*
X70525566Y-46426333D01*
X70425566Y-46459666D01*
X70358900Y-46459666D01*
X71292233Y-46459666D02*
X70958900Y-46459666D01*
X70958900Y-45759666D01*
X71925566Y-46393000D02*
X71892233Y-46426333D01*
X71792233Y-46459666D01*
X71725566Y-46459666D01*
X71625566Y-46426333D01*
X71558900Y-46359666D01*
X71525566Y-46293000D01*
X71492233Y-46159666D01*
X71492233Y-46059666D01*
X71525566Y-45926333D01*
X71558900Y-45859666D01*
X71625566Y-45793000D01*
X71725566Y-45759666D01*
X71792233Y-45759666D01*
X71892233Y-45793000D01*
X71925566Y-45826333D01*
X72425566Y-45759666D02*
X72425566Y-46259666D01*
X72392233Y-46359666D01*
X72325566Y-46426333D01*
X72225566Y-46459666D01*
X72158900Y-46459666D01*
X73092233Y-46459666D02*
X72758900Y-46459666D01*
X72758900Y-45759666D01*
X73725566Y-46393000D02*
X73692233Y-46426333D01*
X73592233Y-46459666D01*
X73525566Y-46459666D01*
X73425566Y-46426333D01*
X73358900Y-46359666D01*
X73325566Y-46293000D01*
X73292233Y-46159666D01*
X73292233Y-46059666D01*
X73325566Y-45926333D01*
X73358900Y-45859666D01*
X73425566Y-45793000D01*
X73525566Y-45759666D01*
X73592233Y-45759666D01*
X73692233Y-45793000D01*
X73725566Y-45826333D01*
X74225566Y-45759666D02*
X74225566Y-46259666D01*
X74192233Y-46359666D01*
X74125566Y-46426333D01*
X74025566Y-46459666D01*
X73958900Y-46459666D01*
X74892233Y-46459666D02*
X74558900Y-46459666D01*
X74558900Y-45759666D01*
X75525566Y-46393000D02*
X75492233Y-46426333D01*
X75392233Y-46459666D01*
X75325566Y-46459666D01*
X75225566Y-46426333D01*
X75158900Y-46359666D01*
X75125566Y-46293000D01*
X75092233Y-46159666D01*
X75092233Y-46059666D01*
X75125566Y-45926333D01*
X75158900Y-45859666D01*
X75225566Y-45793000D01*
X75325566Y-45759666D01*
X75392233Y-45759666D01*
X75492233Y-45793000D01*
X75525566Y-45826333D01*
X63751042Y-40237628D02*
X63751042Y-39837628D01*
X63751042Y-39637628D02*
X63722471Y-39666200D01*
X63751042Y-39694771D01*
X63779614Y-39666200D01*
X63751042Y-39637628D01*
X63751042Y-39694771D01*
X64036757Y-40237628D02*
X64036757Y-39637628D01*
X64265328Y-39637628D01*
X64322471Y-39666200D01*
X64351042Y-39694771D01*
X64379614Y-39751914D01*
X64379614Y-39837628D01*
X64351042Y-39894771D01*
X64322471Y-39923342D01*
X64265328Y-39951914D01*
X64036757Y-39951914D01*
X64722471Y-40237628D02*
X64665328Y-40209057D01*
X64636757Y-40180485D01*
X64608185Y-40123342D01*
X64608185Y-39951914D01*
X64636757Y-39894771D01*
X64665328Y-39866200D01*
X64722471Y-39837628D01*
X64808185Y-39837628D01*
X64865328Y-39866200D01*
X64893899Y-39894771D01*
X64922471Y-39951914D01*
X64922471Y-40123342D01*
X64893899Y-40180485D01*
X64865328Y-40209057D01*
X64808185Y-40237628D01*
X64722471Y-40237628D01*
X65436757Y-40237628D02*
X65436757Y-39637628D01*
X65436757Y-40209057D02*
X65379614Y-40237628D01*
X65265328Y-40237628D01*
X65208185Y-40209057D01*
X65179614Y-40180485D01*
X65151042Y-40123342D01*
X65151042Y-39951914D01*
X65179614Y-39894771D01*
X65208185Y-39866200D01*
X65265328Y-39837628D01*
X65379614Y-39837628D01*
X65436757Y-39866200D01*
X66179614Y-40237628D02*
X66179614Y-39637628D01*
X66522471Y-40237628D01*
X66522471Y-39637628D01*
X67065328Y-40237628D02*
X67065328Y-39923342D01*
X67036757Y-39866200D01*
X66979614Y-39837628D01*
X66865328Y-39837628D01*
X66808185Y-39866200D01*
X67065328Y-40209057D02*
X67008185Y-40237628D01*
X66865328Y-40237628D01*
X66808185Y-40209057D01*
X66779614Y-40151914D01*
X66779614Y-40094771D01*
X66808185Y-40037628D01*
X66865328Y-40009057D01*
X67008185Y-40009057D01*
X67065328Y-39980485D01*
X67351042Y-39837628D02*
X67351042Y-40237628D01*
X67351042Y-39894771D02*
X67379614Y-39866200D01*
X67436757Y-39837628D01*
X67522471Y-39837628D01*
X67579614Y-39866200D01*
X67608185Y-39923342D01*
X67608185Y-40237628D01*
X67979614Y-40237628D02*
X67922471Y-40209057D01*
X67893900Y-40180485D01*
X67865328Y-40123342D01*
X67865328Y-39951914D01*
X67893900Y-39894771D01*
X67922471Y-39866200D01*
X67979614Y-39837628D01*
X68065328Y-39837628D01*
X68122471Y-39866200D01*
X68151042Y-39894771D01*
X68179614Y-39951914D01*
X68179614Y-40123342D01*
X68151042Y-40180485D01*
X68122471Y-40209057D01*
X68065328Y-40237628D01*
X67979614Y-40237628D01*
X68836757Y-39637628D02*
X69208185Y-39637628D01*
X69008185Y-39866200D01*
X69093900Y-39866200D01*
X69151042Y-39894771D01*
X69179614Y-39923342D01*
X69208185Y-39980485D01*
X69208185Y-40123342D01*
X69179614Y-40180485D01*
X69151042Y-40209057D01*
X69093900Y-40237628D01*
X68922471Y-40237628D01*
X68865328Y-40209057D01*
X68836757Y-40180485D01*
X69465328Y-40237628D02*
X69465328Y-39837628D01*
X69465328Y-39951914D02*
X69493900Y-39894771D01*
X69522471Y-39866200D01*
X69579614Y-39837628D01*
X69636757Y-39837628D01*
X70093900Y-40237628D02*
X70093900Y-39637628D01*
X70093900Y-40209057D02*
X70036757Y-40237628D01*
X69922471Y-40237628D01*
X69865328Y-40209057D01*
X69836757Y-40180485D01*
X69808185Y-40123342D01*
X69808185Y-39951914D01*
X69836757Y-39894771D01*
X69865328Y-39866200D01*
X69922471Y-39837628D01*
X70036757Y-39837628D01*
X70093900Y-39866200D01*
X71151042Y-39666200D02*
X71093900Y-39637628D01*
X71008185Y-39637628D01*
X70922471Y-39666200D01*
X70865328Y-39723342D01*
X70836757Y-39780485D01*
X70808185Y-39894771D01*
X70808185Y-39980485D01*
X70836757Y-40094771D01*
X70865328Y-40151914D01*
X70922471Y-40209057D01*
X71008185Y-40237628D01*
X71065328Y-40237628D01*
X71151042Y-40209057D01*
X71179614Y-40180485D01*
X71179614Y-39980485D01*
X71065328Y-39980485D01*
X71665328Y-40209057D02*
X71608185Y-40237628D01*
X71493900Y-40237628D01*
X71436757Y-40209057D01*
X71408185Y-40151914D01*
X71408185Y-39923342D01*
X71436757Y-39866200D01*
X71493900Y-39837628D01*
X71608185Y-39837628D01*
X71665328Y-39866200D01*
X71693900Y-39923342D01*
X71693900Y-39980485D01*
X71408185Y-40037628D01*
X71951042Y-39837628D02*
X71951042Y-40237628D01*
X71951042Y-39894771D02*
X71979614Y-39866200D01*
X72036757Y-39837628D01*
X72122471Y-39837628D01*
X72179614Y-39866200D01*
X72208185Y-39923342D01*
X72208185Y-40237628D01*
X72722471Y-40209057D02*
X72665328Y-40237628D01*
X72551042Y-40237628D01*
X72493900Y-40209057D01*
X72465328Y-40151914D01*
X72465328Y-39923342D01*
X72493900Y-39866200D01*
X72551042Y-39837628D01*
X72665328Y-39837628D01*
X72722471Y-39866200D01*
X72751042Y-39923342D01*
X72751042Y-39980485D01*
X72465328Y-40037628D01*
X73008185Y-40237628D02*
X73008185Y-39837628D01*
X73008185Y-39951914D02*
X73036757Y-39894771D01*
X73065328Y-39866200D01*
X73122471Y-39837628D01*
X73179614Y-39837628D01*
X73636757Y-40237628D02*
X73636757Y-39923342D01*
X73608185Y-39866200D01*
X73551042Y-39837628D01*
X73436757Y-39837628D01*
X73379614Y-39866200D01*
X73636757Y-40209057D02*
X73579614Y-40237628D01*
X73436757Y-40237628D01*
X73379614Y-40209057D01*
X73351042Y-40151914D01*
X73351042Y-40094771D01*
X73379614Y-40037628D01*
X73436757Y-40009057D01*
X73579614Y-40009057D01*
X73636757Y-39980485D01*
X73836757Y-39837628D02*
X74065328Y-39837628D01*
X73922471Y-39637628D02*
X73922471Y-40151914D01*
X73951042Y-40209057D01*
X74008185Y-40237628D01*
X74065328Y-40237628D01*
X74265328Y-40237628D02*
X74265328Y-39837628D01*
X74265328Y-39637628D02*
X74236757Y-39666200D01*
X74265328Y-39694771D01*
X74293900Y-39666200D01*
X74265328Y-39637628D01*
X74265328Y-39694771D01*
X74636757Y-40237628D02*
X74579614Y-40209057D01*
X74551042Y-40180485D01*
X74522471Y-40123342D01*
X74522471Y-39951914D01*
X74551042Y-39894771D01*
X74579614Y-39866200D01*
X74636757Y-39837628D01*
X74722471Y-39837628D01*
X74779614Y-39866200D01*
X74808185Y-39894771D01*
X74836757Y-39951914D01*
X74836757Y-40123342D01*
X74808185Y-40180485D01*
X74779614Y-40209057D01*
X74722471Y-40237628D01*
X74636757Y-40237628D01*
X75093900Y-39837628D02*
X75093900Y-40237628D01*
X75093900Y-39894771D02*
X75122471Y-39866200D01*
X75179614Y-39837628D01*
X75265328Y-39837628D01*
X75322471Y-39866200D01*
X75351042Y-39923342D01*
X75351042Y-40237628D01*
X70951042Y-40973342D02*
X71036757Y-41001914D01*
X71065328Y-41030485D01*
X71093900Y-41087628D01*
X71093900Y-41173342D01*
X71065328Y-41230485D01*
X71036757Y-41259057D01*
X70979614Y-41287628D01*
X70751042Y-41287628D01*
X70751042Y-40687628D01*
X70951042Y-40687628D01*
X71008185Y-40716200D01*
X71036757Y-40744771D01*
X71065328Y-40801914D01*
X71065328Y-40859057D01*
X71036757Y-40916200D01*
X71008185Y-40944771D01*
X70951042Y-40973342D01*
X70751042Y-40973342D01*
X71265328Y-40687628D02*
X71608185Y-40687628D01*
X71436757Y-41287628D02*
X71436757Y-40687628D01*
X72236757Y-41116200D02*
X72522471Y-41116200D01*
X72179614Y-41287628D02*
X72379614Y-40687628D01*
X72579614Y-41287628D01*
X73036757Y-41287628D02*
X73036757Y-40687628D01*
X73036757Y-41259057D02*
X72979614Y-41287628D01*
X72865328Y-41287628D01*
X72808185Y-41259057D01*
X72779614Y-41230485D01*
X72751042Y-41173342D01*
X72751042Y-41001914D01*
X72779614Y-40944771D01*
X72808185Y-40916200D01*
X72865328Y-40887628D01*
X72979614Y-40887628D01*
X73036757Y-40916200D01*
X73579614Y-41287628D02*
X73579614Y-40973342D01*
X73551042Y-40916200D01*
X73493900Y-40887628D01*
X73379614Y-40887628D01*
X73322471Y-40916200D01*
X73579614Y-41259057D02*
X73522471Y-41287628D01*
X73379614Y-41287628D01*
X73322471Y-41259057D01*
X73293900Y-41201914D01*
X73293900Y-41144771D01*
X73322471Y-41087628D01*
X73379614Y-41059057D01*
X73522471Y-41059057D01*
X73579614Y-41030485D01*
X73865328Y-40887628D02*
X73865328Y-41487628D01*
X73865328Y-40916200D02*
X73922471Y-40887628D01*
X74036757Y-40887628D01*
X74093900Y-40916200D01*
X74122471Y-40944771D01*
X74151042Y-41001914D01*
X74151042Y-41173342D01*
X74122471Y-41230485D01*
X74093900Y-41259057D01*
X74036757Y-41287628D01*
X73922471Y-41287628D01*
X73865328Y-41259057D01*
X74322471Y-40887628D02*
X74551042Y-40887628D01*
X74408185Y-40687628D02*
X74408185Y-41201914D01*
X74436757Y-41259057D01*
X74493900Y-41287628D01*
X74551042Y-41287628D01*
X74979614Y-41259057D02*
X74922471Y-41287628D01*
X74808185Y-41287628D01*
X74751042Y-41259057D01*
X74722471Y-41201914D01*
X74722471Y-40973342D01*
X74751042Y-40916200D01*
X74808185Y-40887628D01*
X74922471Y-40887628D01*
X74979614Y-40916200D01*
X75008185Y-40973342D01*
X75008185Y-41030485D01*
X74722471Y-41087628D01*
X75265328Y-41287628D02*
X75265328Y-40887628D01*
X75265328Y-41001914D02*
X75293900Y-40944771D01*
X75322471Y-40916200D01*
X75379614Y-40887628D01*
X75436757Y-40887628D01*
%TO.C,MD1*%
X75750000Y-49500000D02*
X75750000Y-31500000D01*
X50250000Y-49500000D02*
X50250000Y-31500000D01*
X75750000Y-49500000D02*
X50250000Y-49500000D01*
X75750000Y-31500000D02*
X50250000Y-31500000D01*
X69750000Y-49500000D02*
X69750000Y-31500000D01*
D13*
X69887981Y-30594000D02*
G75*
G03*
X69887981Y-30594000I-283981J0D01*
G01*
D14*
%TO.C,U1*%
X44588000Y-32172000D02*
X42138000Y-32172000D01*
X42788000Y-35392000D02*
X44588000Y-35392000D01*
%TO.C,U2*%
X42788000Y-41361000D02*
X44588000Y-41361000D01*
X44588000Y-38141000D02*
X42138000Y-38141000D01*
D15*
%TO.C,U3*%
X41488000Y-49490000D02*
X45888000Y-49490000D01*
X41488000Y-44490000D02*
X45888000Y-44490000D01*
D16*
X39548000Y-44730000D02*
G75*
G03*
X39548000Y-44730000I-100000J0D01*
G01*
%TO.C,MD1*%
D17*
X49484838Y-50543590D02*
X49484838Y-50043590D01*
X49651504Y-50400733D01*
X49818171Y-50043590D01*
X49818171Y-50543590D01*
X50056266Y-50543590D02*
X50056266Y-50043590D01*
X50175314Y-50043590D01*
X50246742Y-50067400D01*
X50294361Y-50115019D01*
X50318171Y-50162638D01*
X50341980Y-50257876D01*
X50341980Y-50329304D01*
X50318171Y-50424542D01*
X50294361Y-50472161D01*
X50246742Y-50519780D01*
X50175314Y-50543590D01*
X50056266Y-50543590D01*
X50818171Y-50543590D02*
X50532457Y-50543590D01*
X50675314Y-50543590D02*
X50675314Y-50043590D01*
X50627695Y-50115019D01*
X50580076Y-50162638D01*
X50532457Y-50186447D01*
X68970685Y-48465285D02*
X69137352Y-48465285D01*
X69208780Y-48727190D02*
X68970685Y-48727190D01*
X68970685Y-48227190D01*
X69208780Y-48227190D01*
X69399257Y-48703380D02*
X69446876Y-48727190D01*
X69542114Y-48727190D01*
X69589733Y-48703380D01*
X69613542Y-48655761D01*
X69613542Y-48631952D01*
X69589733Y-48584333D01*
X69542114Y-48560523D01*
X69470685Y-48560523D01*
X69423066Y-48536714D01*
X69399257Y-48489095D01*
X69399257Y-48465285D01*
X69423066Y-48417666D01*
X69470685Y-48393857D01*
X69542114Y-48393857D01*
X69589733Y-48417666D01*
X69827828Y-48393857D02*
X69827828Y-48893857D01*
X69827828Y-48417666D02*
X69875447Y-48393857D01*
X69970685Y-48393857D01*
X70018304Y-48417666D01*
X70042114Y-48441476D01*
X70065923Y-48489095D01*
X70065923Y-48631952D01*
X70042114Y-48679571D01*
X70018304Y-48703380D01*
X69970685Y-48727190D01*
X69875447Y-48727190D01*
X69827828Y-48703380D01*
X70280209Y-48727190D02*
X70280209Y-48393857D01*
X70280209Y-48489095D02*
X70304019Y-48441476D01*
X70327828Y-48417666D01*
X70375447Y-48393857D01*
X70423066Y-48393857D01*
X70780209Y-48703380D02*
X70732590Y-48727190D01*
X70637352Y-48727190D01*
X70589733Y-48703380D01*
X70565923Y-48655761D01*
X70565923Y-48465285D01*
X70589733Y-48417666D01*
X70637352Y-48393857D01*
X70732590Y-48393857D01*
X70780209Y-48417666D01*
X70804019Y-48465285D01*
X70804019Y-48512904D01*
X70565923Y-48560523D01*
X70994495Y-48703380D02*
X71042114Y-48727190D01*
X71137352Y-48727190D01*
X71184971Y-48703380D01*
X71208780Y-48655761D01*
X71208780Y-48631952D01*
X71184971Y-48584333D01*
X71137352Y-48560523D01*
X71065923Y-48560523D01*
X71018304Y-48536714D01*
X70994495Y-48489095D01*
X70994495Y-48465285D01*
X71018304Y-48417666D01*
X71065923Y-48393857D01*
X71137352Y-48393857D01*
X71184971Y-48417666D01*
X71399257Y-48703380D02*
X71446876Y-48727190D01*
X71542114Y-48727190D01*
X71589733Y-48703380D01*
X71613542Y-48655761D01*
X71613542Y-48631952D01*
X71589733Y-48584333D01*
X71542114Y-48560523D01*
X71470685Y-48560523D01*
X71423066Y-48536714D01*
X71399257Y-48489095D01*
X71399257Y-48465285D01*
X71423066Y-48417666D01*
X71470685Y-48393857D01*
X71542114Y-48393857D01*
X71589733Y-48417666D01*
X71827828Y-48727190D02*
X71827828Y-48393857D01*
X71827828Y-48227190D02*
X71804019Y-48251000D01*
X71827828Y-48274809D01*
X71851638Y-48251000D01*
X71827828Y-48227190D01*
X71827828Y-48274809D01*
X71994495Y-48393857D02*
X72184971Y-48393857D01*
X72065923Y-48727190D02*
X72065923Y-48298619D01*
X72089733Y-48251000D01*
X72137352Y-48227190D01*
X72184971Y-48227190D01*
X72708780Y-48703380D02*
X72780209Y-48727190D01*
X72899257Y-48727190D01*
X72946876Y-48703380D01*
X72970685Y-48679571D01*
X72994495Y-48631952D01*
X72994495Y-48584333D01*
X72970685Y-48536714D01*
X72946876Y-48512904D01*
X72899257Y-48489095D01*
X72804019Y-48465285D01*
X72756400Y-48441476D01*
X72732590Y-48417666D01*
X72708780Y-48370047D01*
X72708780Y-48322428D01*
X72732590Y-48274809D01*
X72756400Y-48251000D01*
X72804019Y-48227190D01*
X72923066Y-48227190D01*
X72994495Y-48251000D01*
X73161161Y-48393857D02*
X73280209Y-48727190D01*
X73399257Y-48393857D02*
X73280209Y-48727190D01*
X73232590Y-48846238D01*
X73208780Y-48870047D01*
X73161161Y-48893857D01*
X73565923Y-48703380D02*
X73613542Y-48727190D01*
X73708780Y-48727190D01*
X73756400Y-48703380D01*
X73780209Y-48655761D01*
X73780209Y-48631952D01*
X73756400Y-48584333D01*
X73708780Y-48560523D01*
X73637352Y-48560523D01*
X73589733Y-48536714D01*
X73565923Y-48489095D01*
X73565923Y-48465285D01*
X73589733Y-48417666D01*
X73637352Y-48393857D01*
X73708780Y-48393857D01*
X73756400Y-48417666D01*
X73923066Y-48393857D02*
X74113542Y-48393857D01*
X73994495Y-48227190D02*
X73994495Y-48655761D01*
X74018304Y-48703380D01*
X74065923Y-48727190D01*
X74113542Y-48727190D01*
X74470685Y-48703380D02*
X74423066Y-48727190D01*
X74327828Y-48727190D01*
X74280209Y-48703380D01*
X74256400Y-48655761D01*
X74256400Y-48465285D01*
X74280209Y-48417666D01*
X74327828Y-48393857D01*
X74423066Y-48393857D01*
X74470685Y-48417666D01*
X74494495Y-48465285D01*
X74494495Y-48512904D01*
X74256400Y-48560523D01*
X74708780Y-48727190D02*
X74708780Y-48393857D01*
X74708780Y-48441476D02*
X74732590Y-48417666D01*
X74780209Y-48393857D01*
X74851638Y-48393857D01*
X74899257Y-48417666D01*
X74923066Y-48465285D01*
X74923066Y-48727190D01*
X74923066Y-48465285D02*
X74946876Y-48417666D01*
X74994495Y-48393857D01*
X75065923Y-48393857D01*
X75113542Y-48417666D01*
X75137352Y-48465285D01*
X75137352Y-48727190D01*
X75351638Y-48703380D02*
X75399257Y-48727190D01*
X75494495Y-48727190D01*
X75542114Y-48703380D01*
X75565923Y-48655761D01*
X75565923Y-48631952D01*
X75542114Y-48584333D01*
X75494495Y-48560523D01*
X75423066Y-48560523D01*
X75375447Y-48536714D01*
X75351638Y-48489095D01*
X75351638Y-48465285D01*
X75375447Y-48417666D01*
X75423066Y-48393857D01*
X75494495Y-48393857D01*
X75542114Y-48417666D01*
D12*
X68984971Y-47600142D02*
X69184971Y-47600142D01*
X69270685Y-47914428D02*
X68984971Y-47914428D01*
X68984971Y-47314428D01*
X69270685Y-47314428D01*
X69499257Y-47885857D02*
X69584971Y-47914428D01*
X69727828Y-47914428D01*
X69784971Y-47885857D01*
X69813542Y-47857285D01*
X69842114Y-47800142D01*
X69842114Y-47743000D01*
X69813542Y-47685857D01*
X69784971Y-47657285D01*
X69727828Y-47628714D01*
X69613542Y-47600142D01*
X69556400Y-47571571D01*
X69527828Y-47543000D01*
X69499257Y-47485857D01*
X69499257Y-47428714D01*
X69527828Y-47371571D01*
X69556400Y-47343000D01*
X69613542Y-47314428D01*
X69756400Y-47314428D01*
X69842114Y-47343000D01*
X70099257Y-47914428D02*
X70099257Y-47314428D01*
X70327828Y-47314428D01*
X70384971Y-47343000D01*
X70413542Y-47371571D01*
X70442114Y-47428714D01*
X70442114Y-47514428D01*
X70413542Y-47571571D01*
X70384971Y-47600142D01*
X70327828Y-47628714D01*
X70099257Y-47628714D01*
X70642114Y-47314428D02*
X71013542Y-47314428D01*
X70813542Y-47543000D01*
X70899257Y-47543000D01*
X70956400Y-47571571D01*
X70984971Y-47600142D01*
X71013542Y-47657285D01*
X71013542Y-47800142D01*
X70984971Y-47857285D01*
X70956400Y-47885857D01*
X70899257Y-47914428D01*
X70727828Y-47914428D01*
X70670685Y-47885857D01*
X70642114Y-47857285D01*
X71242114Y-47371571D02*
X71270685Y-47343000D01*
X71327828Y-47314428D01*
X71470685Y-47314428D01*
X71527828Y-47343000D01*
X71556400Y-47371571D01*
X71584971Y-47428714D01*
X71584971Y-47485857D01*
X71556400Y-47571571D01*
X71213542Y-47914428D01*
X71584971Y-47914428D01*
X71842114Y-47685857D02*
X72299257Y-47685857D01*
X72527828Y-47314428D02*
X72670685Y-47914428D01*
X72784971Y-47485857D01*
X72899257Y-47914428D01*
X73042114Y-47314428D01*
X73613542Y-47914428D02*
X73413542Y-47628714D01*
X73270685Y-47914428D02*
X73270685Y-47314428D01*
X73499257Y-47314428D01*
X73556400Y-47343000D01*
X73584971Y-47371571D01*
X73613542Y-47428714D01*
X73613542Y-47514428D01*
X73584971Y-47571571D01*
X73556400Y-47600142D01*
X73499257Y-47628714D01*
X73270685Y-47628714D01*
X73984971Y-47314428D02*
X74099257Y-47314428D01*
X74156400Y-47343000D01*
X74213542Y-47400142D01*
X74242114Y-47514428D01*
X74242114Y-47714428D01*
X74213542Y-47828714D01*
X74156400Y-47885857D01*
X74099257Y-47914428D01*
X73984971Y-47914428D01*
X73927828Y-47885857D01*
X73870685Y-47828714D01*
X73842114Y-47714428D01*
X73842114Y-47514428D01*
X73870685Y-47400142D01*
X73927828Y-47343000D01*
X73984971Y-47314428D01*
X74613542Y-47314428D02*
X74727828Y-47314428D01*
X74784971Y-47343000D01*
X74842114Y-47400142D01*
X74870685Y-47514428D01*
X74870685Y-47714428D01*
X74842114Y-47828714D01*
X74784971Y-47885857D01*
X74727828Y-47914428D01*
X74613542Y-47914428D01*
X74556400Y-47885857D01*
X74499257Y-47828714D01*
X74470685Y-47714428D01*
X74470685Y-47514428D01*
X74499257Y-47400142D01*
X74556400Y-47343000D01*
X74613542Y-47314428D01*
X75127828Y-47914428D02*
X75127828Y-47314428D01*
X75327828Y-47743000D01*
X75527828Y-47314428D01*
X75527828Y-47914428D01*
%TO.C,J1*%
D18*
X38582600Y-50041628D02*
X38582600Y-50368200D01*
X38560828Y-50433514D01*
X38517285Y-50477057D01*
X38451971Y-50498828D01*
X38408428Y-50498828D01*
X39039800Y-50498828D02*
X38778542Y-50498828D01*
X38909171Y-50498828D02*
X38909171Y-50041628D01*
X38865628Y-50106942D01*
X38822085Y-50150485D01*
X38778542Y-50172257D01*
%TO.C,R1*%
X46786800Y-36655828D02*
X46634400Y-36438114D01*
X46525542Y-36655828D02*
X46525542Y-36198628D01*
X46699714Y-36198628D01*
X46743257Y-36220400D01*
X46765028Y-36242171D01*
X46786800Y-36285714D01*
X46786800Y-36351028D01*
X46765028Y-36394571D01*
X46743257Y-36416342D01*
X46699714Y-36438114D01*
X46525542Y-36438114D01*
X47222228Y-36655828D02*
X46960971Y-36655828D01*
X47091600Y-36655828D02*
X47091600Y-36198628D01*
X47048057Y-36263942D01*
X47004514Y-36307485D01*
X46960971Y-36329257D01*
%TO.C,C3*%
X46278800Y-32167285D02*
X46257028Y-32189057D01*
X46191714Y-32210828D01*
X46148171Y-32210828D01*
X46082857Y-32189057D01*
X46039314Y-32145514D01*
X46017542Y-32101971D01*
X45995771Y-32014885D01*
X45995771Y-31949571D01*
X46017542Y-31862485D01*
X46039314Y-31818942D01*
X46082857Y-31775400D01*
X46148171Y-31753628D01*
X46191714Y-31753628D01*
X46257028Y-31775400D01*
X46278800Y-31797171D01*
X46431200Y-31753628D02*
X46714228Y-31753628D01*
X46561828Y-31927800D01*
X46627142Y-31927800D01*
X46670685Y-31949571D01*
X46692457Y-31971342D01*
X46714228Y-32014885D01*
X46714228Y-32123742D01*
X46692457Y-32167285D01*
X46670685Y-32189057D01*
X46627142Y-32210828D01*
X46496514Y-32210828D01*
X46452971Y-32189057D01*
X46431200Y-32167285D01*
%TO.C,C1*%
X40690800Y-36612285D02*
X40669028Y-36634057D01*
X40603714Y-36655828D01*
X40560171Y-36655828D01*
X40494857Y-36634057D01*
X40451314Y-36590514D01*
X40429542Y-36546971D01*
X40407771Y-36459885D01*
X40407771Y-36394571D01*
X40429542Y-36307485D01*
X40451314Y-36263942D01*
X40494857Y-36220400D01*
X40560171Y-36198628D01*
X40603714Y-36198628D01*
X40669028Y-36220400D01*
X40690800Y-36242171D01*
X41126228Y-36655828D02*
X40864971Y-36655828D01*
X40995600Y-36655828D02*
X40995600Y-36198628D01*
X40952057Y-36263942D01*
X40908514Y-36307485D01*
X40864971Y-36329257D01*
%TO.C,U1*%
D17*
X43307047Y-31222190D02*
X43307047Y-31626952D01*
X43330857Y-31674571D01*
X43354666Y-31698380D01*
X43402285Y-31722190D01*
X43497523Y-31722190D01*
X43545142Y-31698380D01*
X43568952Y-31674571D01*
X43592761Y-31626952D01*
X43592761Y-31222190D01*
X44092761Y-31722190D02*
X43807047Y-31722190D01*
X43949904Y-31722190D02*
X43949904Y-31222190D01*
X43902285Y-31293619D01*
X43854666Y-31341238D01*
X43807047Y-31365047D01*
%TO.C,C2*%
D18*
X40182800Y-32167285D02*
X40161028Y-32189057D01*
X40095714Y-32210828D01*
X40052171Y-32210828D01*
X39986857Y-32189057D01*
X39943314Y-32145514D01*
X39921542Y-32101971D01*
X39899771Y-32014885D01*
X39899771Y-31949571D01*
X39921542Y-31862485D01*
X39943314Y-31818942D01*
X39986857Y-31775400D01*
X40052171Y-31753628D01*
X40095714Y-31753628D01*
X40161028Y-31775400D01*
X40182800Y-31797171D01*
X40356971Y-31797171D02*
X40378742Y-31775400D01*
X40422285Y-31753628D01*
X40531142Y-31753628D01*
X40574685Y-31775400D01*
X40596457Y-31797171D01*
X40618228Y-31840714D01*
X40618228Y-31884257D01*
X40596457Y-31949571D01*
X40335200Y-32210828D01*
X40618228Y-32210828D01*
%TO.C,C6*%
X47548800Y-32167285D02*
X47527028Y-32189057D01*
X47461714Y-32210828D01*
X47418171Y-32210828D01*
X47352857Y-32189057D01*
X47309314Y-32145514D01*
X47287542Y-32101971D01*
X47265771Y-32014885D01*
X47265771Y-31949571D01*
X47287542Y-31862485D01*
X47309314Y-31818942D01*
X47352857Y-31775400D01*
X47418171Y-31753628D01*
X47461714Y-31753628D01*
X47527028Y-31775400D01*
X47548800Y-31797171D01*
X47940685Y-31753628D02*
X47853600Y-31753628D01*
X47810057Y-31775400D01*
X47788285Y-31797171D01*
X47744742Y-31862485D01*
X47722971Y-31949571D01*
X47722971Y-32123742D01*
X47744742Y-32167285D01*
X47766514Y-32189057D01*
X47810057Y-32210828D01*
X47897142Y-32210828D01*
X47940685Y-32189057D01*
X47962457Y-32167285D01*
X47984228Y-32123742D01*
X47984228Y-32014885D01*
X47962457Y-31971342D01*
X47940685Y-31949571D01*
X47897142Y-31927800D01*
X47810057Y-31927800D01*
X47766514Y-31949571D01*
X47744742Y-31971342D01*
X47722971Y-32014885D01*
%TO.C,C7*%
X40182800Y-38085485D02*
X40161028Y-38107257D01*
X40095714Y-38129028D01*
X40052171Y-38129028D01*
X39986857Y-38107257D01*
X39943314Y-38063714D01*
X39921542Y-38020171D01*
X39899771Y-37933085D01*
X39899771Y-37867771D01*
X39921542Y-37780685D01*
X39943314Y-37737142D01*
X39986857Y-37693600D01*
X40052171Y-37671828D01*
X40095714Y-37671828D01*
X40161028Y-37693600D01*
X40182800Y-37715371D01*
X40335200Y-37671828D02*
X40640000Y-37671828D01*
X40444057Y-38129028D01*
%TO.C,C8*%
X46278800Y-38136285D02*
X46257028Y-38158057D01*
X46191714Y-38179828D01*
X46148171Y-38179828D01*
X46082857Y-38158057D01*
X46039314Y-38114514D01*
X46017542Y-38070971D01*
X45995771Y-37983885D01*
X45995771Y-37918571D01*
X46017542Y-37831485D01*
X46039314Y-37787942D01*
X46082857Y-37744400D01*
X46148171Y-37722628D01*
X46191714Y-37722628D01*
X46257028Y-37744400D01*
X46278800Y-37766171D01*
X46540057Y-37918571D02*
X46496514Y-37896800D01*
X46474742Y-37875028D01*
X46452971Y-37831485D01*
X46452971Y-37809714D01*
X46474742Y-37766171D01*
X46496514Y-37744400D01*
X46540057Y-37722628D01*
X46627142Y-37722628D01*
X46670685Y-37744400D01*
X46692457Y-37766171D01*
X46714228Y-37809714D01*
X46714228Y-37831485D01*
X46692457Y-37875028D01*
X46670685Y-37896800D01*
X46627142Y-37918571D01*
X46540057Y-37918571D01*
X46496514Y-37940342D01*
X46474742Y-37962114D01*
X46452971Y-38005657D01*
X46452971Y-38092742D01*
X46474742Y-38136285D01*
X46496514Y-38158057D01*
X46540057Y-38179828D01*
X46627142Y-38179828D01*
X46670685Y-38158057D01*
X46692457Y-38136285D01*
X46714228Y-38092742D01*
X46714228Y-38005657D01*
X46692457Y-37962114D01*
X46670685Y-37940342D01*
X46627142Y-37918571D01*
%TO.C,C9*%
X47421800Y-38136285D02*
X47400028Y-38158057D01*
X47334714Y-38179828D01*
X47291171Y-38179828D01*
X47225857Y-38158057D01*
X47182314Y-38114514D01*
X47160542Y-38070971D01*
X47138771Y-37983885D01*
X47138771Y-37918571D01*
X47160542Y-37831485D01*
X47182314Y-37787942D01*
X47225857Y-37744400D01*
X47291171Y-37722628D01*
X47334714Y-37722628D01*
X47400028Y-37744400D01*
X47421800Y-37766171D01*
X47639514Y-38179828D02*
X47726600Y-38179828D01*
X47770142Y-38158057D01*
X47791914Y-38136285D01*
X47835457Y-38070971D01*
X47857228Y-37983885D01*
X47857228Y-37809714D01*
X47835457Y-37766171D01*
X47813685Y-37744400D01*
X47770142Y-37722628D01*
X47683057Y-37722628D01*
X47639514Y-37744400D01*
X47617742Y-37766171D01*
X47595971Y-37809714D01*
X47595971Y-37918571D01*
X47617742Y-37962114D01*
X47639514Y-37983885D01*
X47683057Y-38005657D01*
X47770142Y-38005657D01*
X47813685Y-37983885D01*
X47835457Y-37962114D01*
X47857228Y-37918571D01*
%TO.C,C10*%
X41616085Y-42708285D02*
X41594314Y-42730057D01*
X41529000Y-42751828D01*
X41485457Y-42751828D01*
X41420142Y-42730057D01*
X41376600Y-42686514D01*
X41354828Y-42642971D01*
X41333057Y-42555885D01*
X41333057Y-42490571D01*
X41354828Y-42403485D01*
X41376600Y-42359942D01*
X41420142Y-42316400D01*
X41485457Y-42294628D01*
X41529000Y-42294628D01*
X41594314Y-42316400D01*
X41616085Y-42338171D01*
X42051514Y-42751828D02*
X41790257Y-42751828D01*
X41920885Y-42751828D02*
X41920885Y-42294628D01*
X41877342Y-42359942D01*
X41833800Y-42403485D01*
X41790257Y-42425257D01*
X42334542Y-42294628D02*
X42378085Y-42294628D01*
X42421628Y-42316400D01*
X42443400Y-42338171D01*
X42465171Y-42381714D01*
X42486942Y-42468800D01*
X42486942Y-42577657D01*
X42465171Y-42664742D01*
X42443400Y-42708285D01*
X42421628Y-42730057D01*
X42378085Y-42751828D01*
X42334542Y-42751828D01*
X42291000Y-42730057D01*
X42269228Y-42708285D01*
X42247457Y-42664742D01*
X42225685Y-42577657D01*
X42225685Y-42468800D01*
X42247457Y-42381714D01*
X42269228Y-42338171D01*
X42291000Y-42316400D01*
X42334542Y-42294628D01*
%TO.C,C11*%
X45172085Y-42708285D02*
X45150314Y-42730057D01*
X45085000Y-42751828D01*
X45041457Y-42751828D01*
X44976142Y-42730057D01*
X44932600Y-42686514D01*
X44910828Y-42642971D01*
X44889057Y-42555885D01*
X44889057Y-42490571D01*
X44910828Y-42403485D01*
X44932600Y-42359942D01*
X44976142Y-42316400D01*
X45041457Y-42294628D01*
X45085000Y-42294628D01*
X45150314Y-42316400D01*
X45172085Y-42338171D01*
X45607514Y-42751828D02*
X45346257Y-42751828D01*
X45476885Y-42751828D02*
X45476885Y-42294628D01*
X45433342Y-42359942D01*
X45389800Y-42403485D01*
X45346257Y-42425257D01*
X46042942Y-42751828D02*
X45781685Y-42751828D01*
X45912314Y-42751828D02*
X45912314Y-42294628D01*
X45868771Y-42359942D01*
X45825228Y-42403485D01*
X45781685Y-42425257D01*
%TO.C,U2*%
X43339657Y-37214628D02*
X43339657Y-37584742D01*
X43361428Y-37628285D01*
X43383200Y-37650057D01*
X43426742Y-37671828D01*
X43513828Y-37671828D01*
X43557371Y-37650057D01*
X43579142Y-37628285D01*
X43600914Y-37584742D01*
X43600914Y-37214628D01*
X43796857Y-37258171D02*
X43818628Y-37236400D01*
X43862171Y-37214628D01*
X43971028Y-37214628D01*
X44014571Y-37236400D01*
X44036342Y-37258171D01*
X44058114Y-37301714D01*
X44058114Y-37345257D01*
X44036342Y-37410571D01*
X43775085Y-37671828D01*
X44058114Y-37671828D01*
%TO.C,U3*%
X43339657Y-49914628D02*
X43339657Y-50284742D01*
X43361428Y-50328285D01*
X43383200Y-50350057D01*
X43426742Y-50371828D01*
X43513828Y-50371828D01*
X43557371Y-50350057D01*
X43579142Y-50328285D01*
X43600914Y-50284742D01*
X43600914Y-49914628D01*
X43775085Y-49914628D02*
X44058114Y-49914628D01*
X43905714Y-50088800D01*
X43971028Y-50088800D01*
X44014571Y-50110571D01*
X44036342Y-50132342D01*
X44058114Y-50175885D01*
X44058114Y-50284742D01*
X44036342Y-50328285D01*
X44014571Y-50350057D01*
X43971028Y-50371828D01*
X43840400Y-50371828D01*
X43796857Y-50350057D01*
X43775085Y-50328285D01*
%TD*%
%LPC*%
D19*
%TO.C,MD1*%
X68250000Y-49500000D03*
X66980000Y-49500000D03*
X65710000Y-49500000D03*
X64440000Y-49500000D03*
X63170000Y-49500000D03*
X61900000Y-49500000D03*
X60630000Y-49500000D03*
X59360000Y-49500000D03*
X58090000Y-49500000D03*
X56820000Y-49500000D03*
X55550000Y-49500000D03*
X54280000Y-49500000D03*
X53010000Y-49500000D03*
X51740000Y-49500000D03*
D20*
X50250000Y-46215000D03*
X50250000Y-44945000D03*
X50250000Y-43675000D03*
X50250000Y-42405000D03*
X50250000Y-41135000D03*
X50250000Y-39865000D03*
X50250000Y-38595000D03*
X50250000Y-37325000D03*
X50250000Y-36055000D03*
X50250000Y-34785000D03*
D19*
X51740000Y-31500000D03*
X53010000Y-31500000D03*
X54280000Y-31500000D03*
X55550000Y-31500000D03*
X56820000Y-31500000D03*
X58090000Y-31500000D03*
X59360000Y-31500000D03*
X60630000Y-31500000D03*
X61900000Y-31500000D03*
X63170000Y-31500000D03*
X64440000Y-31500000D03*
X65710000Y-31500000D03*
X66980000Y-31500000D03*
X68250000Y-31500000D03*
D21*
X60550000Y-40200000D03*
%TD*%
D22*
%TO.C,J1*%
X34417000Y-49920000D03*
X34417000Y-47820000D03*
X34417000Y-45720000D03*
X34417000Y-43620000D03*
X34417000Y-41520000D03*
X34417000Y-39420000D03*
X34417000Y-37320000D03*
X34417000Y-35220000D03*
X34417000Y-33120000D03*
X34417000Y-31020000D03*
%TD*%
D23*
%TO.C,R1*%
X45916000Y-36449000D03*
X45016000Y-36449000D03*
%TD*%
D24*
%TO.C,C3*%
X46355000Y-32851000D03*
X46355000Y-33951000D03*
%TD*%
D25*
%TO.C,C1*%
X42968000Y-36449000D03*
X41868000Y-36449000D03*
%TD*%
D26*
%TO.C,U1*%
X42588000Y-32832000D03*
X42588000Y-33782000D03*
X42588000Y-34732000D03*
X44788000Y-34732000D03*
X44788000Y-32832000D03*
%TD*%
D24*
%TO.C,C2*%
X40259000Y-32851000D03*
X40259000Y-33951000D03*
%TD*%
%TO.C,C6*%
X47625000Y-33951000D03*
X47625000Y-32851000D03*
%TD*%
%TO.C,C7*%
X40259000Y-38820000D03*
X40259000Y-39920000D03*
%TD*%
%TO.C,C8*%
X46355000Y-38820000D03*
X46355000Y-39920000D03*
%TD*%
%TO.C,C9*%
X47498000Y-38820000D03*
X47498000Y-39920000D03*
%TD*%
D25*
%TO.C,C10*%
X41952000Y-43307000D03*
X40852000Y-43307000D03*
%TD*%
%TO.C,C11*%
X45424000Y-43307000D03*
X46524000Y-43307000D03*
%TD*%
D26*
%TO.C,U2*%
X44788000Y-38801000D03*
X44788000Y-40701000D03*
X42588000Y-40701000D03*
X42588000Y-39751000D03*
X42588000Y-38801000D03*
%TD*%
%TO.C,U3*%
G36*
G01*
X45773000Y-45224500D02*
X45773000Y-44855500D01*
G75*
G02*
X45793500Y-44835000I20500J0D01*
G01*
X47322500Y-44835000D01*
G75*
G02*
X47343000Y-44855500I0J-20500D01*
G01*
X47343000Y-45224500D01*
G75*
G02*
X47322500Y-45245000I-20500J0D01*
G01*
X45793500Y-45245000D01*
G75*
G02*
X45773000Y-45224500I0J20500D01*
G01*
G37*
G36*
G01*
X45773000Y-45874500D02*
X45773000Y-45505500D01*
G75*
G02*
X45793500Y-45485000I20500J0D01*
G01*
X47322500Y-45485000D01*
G75*
G02*
X47343000Y-45505500I0J-20500D01*
G01*
X47343000Y-45874500D01*
G75*
G02*
X47322500Y-45895000I-20500J0D01*
G01*
X45793500Y-45895000D01*
G75*
G02*
X45773000Y-45874500I0J20500D01*
G01*
G37*
G36*
G01*
X45773000Y-46524500D02*
X45773000Y-46155500D01*
G75*
G02*
X45793500Y-46135000I20500J0D01*
G01*
X47322500Y-46135000D01*
G75*
G02*
X47343000Y-46155500I0J-20500D01*
G01*
X47343000Y-46524500D01*
G75*
G02*
X47322500Y-46545000I-20500J0D01*
G01*
X45793500Y-46545000D01*
G75*
G02*
X45773000Y-46524500I0J20500D01*
G01*
G37*
G36*
G01*
X45773000Y-47174500D02*
X45773000Y-46805500D01*
G75*
G02*
X45793500Y-46785000I20500J0D01*
G01*
X47322500Y-46785000D01*
G75*
G02*
X47343000Y-46805500I0J-20500D01*
G01*
X47343000Y-47174500D01*
G75*
G02*
X47322500Y-47195000I-20500J0D01*
G01*
X45793500Y-47195000D01*
G75*
G02*
X45773000Y-47174500I0J20500D01*
G01*
G37*
G36*
G01*
X45773000Y-47824500D02*
X45773000Y-47455500D01*
G75*
G02*
X45793500Y-47435000I20500J0D01*
G01*
X47322500Y-47435000D01*
G75*
G02*
X47343000Y-47455500I0J-20500D01*
G01*
X47343000Y-47824500D01*
G75*
G02*
X47322500Y-47845000I-20500J0D01*
G01*
X45793500Y-47845000D01*
G75*
G02*
X45773000Y-47824500I0J20500D01*
G01*
G37*
G36*
G01*
X45773000Y-48474500D02*
X45773000Y-48105500D01*
G75*
G02*
X45793500Y-48085000I20500J0D01*
G01*
X47322500Y-48085000D01*
G75*
G02*
X47343000Y-48105500I0J-20500D01*
G01*
X47343000Y-48474500D01*
G75*
G02*
X47322500Y-48495000I-20500J0D01*
G01*
X45793500Y-48495000D01*
G75*
G02*
X45773000Y-48474500I0J20500D01*
G01*
G37*
G36*
G01*
X45773000Y-49124500D02*
X45773000Y-48755500D01*
G75*
G02*
X45793500Y-48735000I20500J0D01*
G01*
X47322500Y-48735000D01*
G75*
G02*
X47343000Y-48755500I0J-20500D01*
G01*
X47343000Y-49124500D01*
G75*
G02*
X47322500Y-49145000I-20500J0D01*
G01*
X45793500Y-49145000D01*
G75*
G02*
X45773000Y-49124500I0J20500D01*
G01*
G37*
G36*
G01*
X40033000Y-49124500D02*
X40033000Y-48755500D01*
G75*
G02*
X40053500Y-48735000I20500J0D01*
G01*
X41582500Y-48735000D01*
G75*
G02*
X41603000Y-48755500I0J-20500D01*
G01*
X41603000Y-49124500D01*
G75*
G02*
X41582500Y-49145000I-20500J0D01*
G01*
X40053500Y-49145000D01*
G75*
G02*
X40033000Y-49124500I0J20500D01*
G01*
G37*
G36*
G01*
X40033000Y-48474500D02*
X40033000Y-48105500D01*
G75*
G02*
X40053500Y-48085000I20500J0D01*
G01*
X41582500Y-48085000D01*
G75*
G02*
X41603000Y-48105500I0J-20500D01*
G01*
X41603000Y-48474500D01*
G75*
G02*
X41582500Y-48495000I-20500J0D01*
G01*
X40053500Y-48495000D01*
G75*
G02*
X40033000Y-48474500I0J20500D01*
G01*
G37*
G36*
G01*
X40033000Y-47824500D02*
X40033000Y-47455500D01*
G75*
G02*
X40053500Y-47435000I20500J0D01*
G01*
X41582500Y-47435000D01*
G75*
G02*
X41603000Y-47455500I0J-20500D01*
G01*
X41603000Y-47824500D01*
G75*
G02*
X41582500Y-47845000I-20500J0D01*
G01*
X40053500Y-47845000D01*
G75*
G02*
X40033000Y-47824500I0J20500D01*
G01*
G37*
G36*
G01*
X40033000Y-47174500D02*
X40033000Y-46805500D01*
G75*
G02*
X40053500Y-46785000I20500J0D01*
G01*
X41582500Y-46785000D01*
G75*
G02*
X41603000Y-46805500I0J-20500D01*
G01*
X41603000Y-47174500D01*
G75*
G02*
X41582500Y-47195000I-20500J0D01*
G01*
X40053500Y-47195000D01*
G75*
G02*
X40033000Y-47174500I0J20500D01*
G01*
G37*
G36*
G01*
X40033000Y-46524500D02*
X40033000Y-46155500D01*
G75*
G02*
X40053500Y-46135000I20500J0D01*
G01*
X41582500Y-46135000D01*
G75*
G02*
X41603000Y-46155500I0J-20500D01*
G01*
X41603000Y-46524500D01*
G75*
G02*
X41582500Y-46545000I-20500J0D01*
G01*
X40053500Y-46545000D01*
G75*
G02*
X40033000Y-46524500I0J20500D01*
G01*
G37*
G36*
G01*
X40033000Y-45874500D02*
X40033000Y-45505500D01*
G75*
G02*
X40053500Y-45485000I20500J0D01*
G01*
X41582500Y-45485000D01*
G75*
G02*
X41603000Y-45505500I0J-20500D01*
G01*
X41603000Y-45874500D01*
G75*
G02*
X41582500Y-45895000I-20500J0D01*
G01*
X40053500Y-45895000D01*
G75*
G02*
X40033000Y-45874500I0J20500D01*
G01*
G37*
G36*
G01*
X40033000Y-45224500D02*
X40033000Y-44855500D01*
G75*
G02*
X40053500Y-44835000I20500J0D01*
G01*
X41582500Y-44835000D01*
G75*
G02*
X41603000Y-44855500I0J-20500D01*
G01*
X41603000Y-45224500D01*
G75*
G02*
X41582500Y-45245000I-20500J0D01*
G01*
X40053500Y-45245000D01*
G75*
G02*
X40033000Y-45224500I0J20500D01*
G01*
G37*
%TD*%
M02*
